<?xml version="1.0" standalone="no"?><svg xmlns:xlink="http://www.w3.org/1999/xlink" xmlns="http://www.w3.org/2000/svg" viewBox="0 0 1000 1000.0000000000001" preserveAspectRatio="xMaxYMax slice"><g transform="scale(1.098901098901099)"><rect x="0" y="0" width="910" height="910" fill="#222f3e"/><rect x="7.583333333333333" y="7.583333333333333" width="60.666666666666664" height="60.666666666666664" fill="#222f3e"/><rect x="7.58" y="7.58" width="30.33" height="30.33" fill="#4c3642"/><polygon points="7.58,7.58 37.91,7.58 37.91,37.91" fill="#ba494e"/><rect x="37.92" y="7.58" width="30.33" height="30.33" fill="#b9494e"/><polygon points="37.92,7.58 68.25,7.58 68.25,37.91" fill="#cb4c4f"/><rect x="7.58" y="37.92" width="30.33" height="30.33" fill="#633a45"/><polygon points="7.58,37.92 37.91,37.92 37.91,68.25" fill="#d34d50"/><rect x="37.92" y="37.92" width="30.33" height="30.33" fill="#bf4a4e"/><polygon points="37.92,37.92 68.25,37.92 37.92,68.25" fill="#b3484d"/><rect x="83.41666666666666" y="7.583333333333333" width="60.666666666666664" height="60.666666666666664" fill="#222f3e"/><rect x="83.42" y="7.58" width="30.33" height="30.33" fill="#b3484d"/><polygon points="83.42,7.58 113.75,7.58 83.42,37.91" fill="#823f48"/><rect x="113.75" y="7.58" width="30.33" height="30.33" fill="#29303f"/><polygon points="113.75,7.58 144.07999999999998,7.58 113.75,37.91" fill="#a1454b"/><rect x="83.42" y="37.92" width="30.33" height="30.33" fill="#c84c4f"/><polygon points="83.42,37.92 113.75,37.92 113.75,68.25" fill="#cd4c50"/><rect x="113.75" y="37.92" width="30.33" height="30.33" fill="#c54b4f"/><polygon points="113.75,37.92 144.07999999999998,68.25 113.75,68.25" fill="#3b3341"/><rect x="159.25" y="7.58" width="60.67" height="60.67" fill="#8a4149"/><polygon points="159.25,7.58 219.92000000000002,68.25 159.25,68.25" fill="#a9464c"/><rect x="235.08333333333334" y="7.583333333333333" width="60.666666666666664" height="60.666666666666664" fill="#222f3e"/><rect x="235.08" y="7.58" width="30.33" height="30.33" fill="#e15052"/><polygon points="235.08,7.58 265.41,7.58 235.08,37.91" fill="#9a444a"/><rect x="265.42" y="7.58" width="30.33" height="30.33" fill="#9b444a"/><polygon points="265.42,7.58 295.75,7.58 265.42,37.91" fill="#333240"/><rect x="235.08" y="37.92" width="30.33" height="30.33" fill="#7b3e47"/><polygon points="235.08,37.92 265.41,37.92 235.08,68.25" fill="#513743"/><rect x="265.42" y="37.92" width="30.33" height="30.33" fill="#363240"/><polygon points="265.42,37.92 295.75,68.25 265.42,68.25" fill="#914249"/><rect x="310.91666666666663" y="7.583333333333333" width="60.666666666666664" height="60.666666666666664" fill="#222f3e"/><rect x="310.92" y="7.58" width="30.33" height="30.33" fill="#783e47"/><polygon points="310.92,7.58 341.25,37.91 310.92,37.91" fill="#e75152"/><rect x="341.25" y="7.58" width="30.33" height="30.33" fill="#7d3f47"/><polygon points="371.58,7.58 371.58,37.91 341.25,37.91" fill="#914249"/><rect x="310.92" y="37.92" width="30.33" height="30.33" fill="#8f4249"/><polygon points="310.92,37.92 341.25,68.25 310.92,68.25" fill="#e35052"/><rect x="341.25" y="37.92" width="30.33" height="30.33" fill="#ee5253"/><polygon points="341.25,37.92 371.58,37.92 371.58,68.25" fill="#403441"/><rect x="386.74999999999994" y="7.583333333333333" width="60.666666666666664" height="60.666666666666664" fill="#222f3e"/><rect x="386.75" y="7.58" width="30.33" height="30.33" fill="#914249"/><polygon points="386.75,7.58 417.08,7.58 386.75,37.91" fill="#ae474c"/><rect x="417.08" y="7.58" width="30.33" height="30.33" fill="#8d4149"/><polygon points="417.08,7.58 447.40999999999997,37.91 417.08,37.91" fill="#b6484d"/><rect x="386.75" y="37.92" width="30.33" height="30.33" fill="#bf4a4e"/><polygon points="386.75,37.92 417.08,37.92 386.75,68.25" fill="#b5484d"/><rect x="417.08" y="37.92" width="30.33" height="30.33" fill="#e75152"/><polygon points="417.08,37.92 447.40999999999997,68.25 417.08,68.25" fill="#97434a"/><rect x="462.5833333333333" y="7.583333333333333" width="60.666666666666664" height="60.666666666666664" fill="#222f3e"/><rect x="462.58" y="7.58" width="30.33" height="30.33" fill="#bc494e"/><polygon points="462.58,7.58 492.90999999999997,37.91 462.58,37.91" fill="#96434a"/><rect x="492.92" y="7.58" width="30.33" height="30.33" fill="#93424a"/><polygon points="523.25,7.58 523.25,37.91 492.92,37.91" fill="#93424a"/><rect x="462.58" y="37.92" width="30.33" height="30.33" fill="#c44b4f"/><polygon points="462.58,37.92 492.90999999999997,68.25 462.58,68.25" fill="#5c3944"/><rect x="492.92" y="37.92" width="30.33" height="30.33" fill="#713d46"/><polygon points="523.25,37.92 523.25,68.25 492.92,68.25" fill="#2c313f"/><rect x="538.42" y="7.58" width="60.67" height="60.67" fill="#813f48"/><polygon points="538.42,7.58 599.0899999999999,7.58 599.0899999999999,68.25" fill="#723d46"/><rect x="614.25" y="7.583333333333333" width="60.666666666666664" height="60.666666666666664" fill="#222f3e"/><rect x="614.25" y="7.58" width="30.33" height="30.33" fill="#c64b4f"/><polygon points="614.25,7.58 644.58,7.58 644.58,37.91" fill="#c24a4e"/><rect x="644.58" y="7.58" width="30.33" height="30.33" fill="#ce4d50"/><polygon points="674.9100000000001,7.58 674.9100000000001,37.91 644.58,37.91" fill="#653a45"/><rect x="614.25" y="37.92" width="30.33" height="30.33" fill="#a4454b"/><polygon points="614.25,37.92 644.58,68.25 614.25,68.25" fill="#323240"/><rect x="644.58" y="37.92" width="30.33" height="30.33" fill="#5d3944"/><polygon points="674.9100000000001,37.92 674.9100000000001,68.25 644.58,68.25" fill="#8e4249"/><rect x="690.08" y="7.58" width="60.67" height="60.67" fill="#8b4149"/><polygon points="690.08,7.58 750.75,7.58 750.75,68.25" fill="#26303e"/><rect x="765.9166666666666" y="7.583333333333333" width="60.666666666666664" height="60.666666666666664" fill="#222f3e"/><rect x="765.92" y="7.58" width="30.33" height="30.33" fill="#a8464c"/><polygon points="765.92,7.58 796.25,7.58 765.92,37.91" fill="#7c3e47"/><rect x="796.25" y="7.58" width="30.33" height="30.33" fill="#9e444b"/><polygon points="796.25,7.58 826.58,7.58 796.25,37.91" fill="#864048"/><rect x="765.92" y="37.92" width="30.33" height="30.33" fill="#6d3c46"/><polygon points="765.92,37.92 796.25,37.92 796.25,68.25" fill="#613a45"/><rect x="796.25" y="37.92" width="30.33" height="30.33" fill="#29303f"/><polygon points="796.25,37.92 826.58,37.92 826.58,68.25" fill="#2f313f"/><rect x="841.75" y="7.58" width="60.67" height="60.67" fill="#313240"/><polygon points="841.75,7.58 902.42,7.58 841.75,68.25" fill="#b6484d"/><rect x="7.58" y="83.42" width="60.67" height="60.67" fill="#2f313f"/><polygon points="7.58,83.42 68.25,83.42 68.25,144.09" fill="#6b3c46"/><rect x="83.41666666666666" y="83.41666666666666" width="60.666666666666664" height="60.666666666666664" fill="#222f3e"/><rect x="83.42" y="83.42" width="30.33" height="30.33" fill="#703c46"/><polygon points="83.42,83.42 113.75,113.75 83.42,113.75" fill="#ad474c"/><rect x="113.75" y="83.42" width="30.33" height="30.33" fill="#753d47"/><polygon points="113.75,83.42 144.07999999999998,83.42 144.07999999999998,113.75" fill="#8e4249"/><rect x="83.42" y="113.75" width="30.33" height="30.33" fill="#844048"/><polygon points="113.75,113.75 113.75,144.07999999999998 83.42,144.07999999999998" fill="#b0474d"/><rect x="113.75" y="113.75" width="30.33" height="30.33" fill="#8a4149"/><polygon points="113.75,113.75 144.07999999999998,144.07999999999998 113.75,144.07999999999998" fill="#d84e51"/><rect x="159.25" y="83.42" width="60.67" height="60.67" fill="#9f444b"/><polygon points="159.25,83.42 219.92000000000002,83.42 219.92000000000002,144.09" fill="#7d3f47"/><rect x="235.08" y="83.42" width="60.67" height="60.67" fill="#653a45"/><polygon points="235.08,83.42 295.75,83.42 235.08,144.09" fill="#29303f"/><rect x="310.91666666666663" y="83.41666666666666" width="60.666666666666664" height="60.666666666666664" fill="#222f3e"/><rect x="310.92" y="83.42" width="30.33" height="30.33" fill="#30313f"/><polygon points="310.92,83.42 341.25,83.42 310.92,113.75" fill="#7d3f47"/><rect x="341.25" y="83.42" width="30.33" height="30.33" fill="#3c3341"/><polygon points="341.25,83.42 371.58,83.42 341.25,113.75" fill="#9d444b"/><rect x="310.92" y="113.75" width="30.33" height="30.33" fill="#222f3e"/><polygon points="341.25,113.75 341.25,144.07999999999998 310.92,144.07999999999998" fill="#a2454b"/><rect x="341.25" y="113.75" width="30.33" height="30.33" fill="#b3484d"/><polygon points="341.25,113.75 371.58,113.75 341.25,144.07999999999998" fill="#eb5253"/><rect x="386.74999999999994" y="83.41666666666666" width="60.666666666666664" height="60.666666666666664" fill="#222f3e"/><rect x="386.75" y="83.42" width="30.33" height="30.33" fill="#30313f"/><polygon points="417.08,83.42 417.08,113.75 386.75,113.75" fill="#9c444b"/><rect x="417.08" y="83.42" width="30.33" height="30.33" fill="#e05052"/><polygon points="447.40999999999997,83.42 447.40999999999997,113.75 417.08,113.75" fill="#a3454b"/><rect x="386.75" y="113.75" width="30.33" height="30.33" fill="#5c3944"/><polygon points="386.75,113.75 417.08,113.75 417.08,144.07999999999998" fill="#533743"/><rect x="417.08" y="113.75" width="30.33" height="30.33" fill="#3a3340"/><polygon points="417.08,113.75 447.40999999999997,113.75 417.08,144.07999999999998" fill="#2c313f"/><rect x="462.58" y="83.42" width="60.67" height="60.67" fill="#b7494d"/><polygon points="523.25,83.42 523.25,144.09 462.58,144.09" fill="#26303e"/><rect x="538.4166666666666" y="83.41666666666666" width="60.666666666666664" height="60.666666666666664" fill="#222f3e"/><rect x="538.42" y="83.42" width="30.33" height="30.33" fill="#3a3341"/><polygon points="538.42,83.42 568.75,83.42 538.42,113.75" fill="#683b45"/><rect x="568.75" y="83.42" width="30.33" height="30.33" fill="#7d3f47"/><polygon points="568.75,83.42 599.08,113.75 568.75,113.75" fill="#5e3944"/><rect x="538.42" y="113.75" width="30.33" height="30.33" fill="#a0454b"/><polygon points="538.42,113.75 568.75,144.07999999999998 538.42,144.07999999999998" fill="#563843"/><rect x="568.75" y="113.75" width="30.33" height="30.33" fill="#5a3944"/><polygon points="568.75,113.75 599.08,144.07999999999998 568.75,144.07999999999998" fill="#854048"/><rect x="614.25" y="83.42" width="60.67" height="60.67" fill="#844048"/><polygon points="614.25,83.42 674.92,83.42 674.92,144.09" fill="#613a44"/><rect x="690.0833333333334" y="83.41666666666666" width="60.666666666666664" height="60.666666666666664" fill="#222f3e"/><rect x="690.08" y="83.42" width="30.33" height="30.33" fill="#813f48"/><polygon points="690.08,83.42 720.4100000000001,83.42 720.4100000000001,113.75" fill="#cb4c4f"/><rect x="720.42" y="83.42" width="30.33" height="30.33" fill="#d04d50"/><polygon points="720.42,83.42 750.75,83.42 720.42,113.75" fill="#ad474c"/><rect x="690.08" y="113.75" width="30.33" height="30.33" fill="#d64e51"/><polygon points="690.08,113.75 720.4100000000001,113.75 690.08,144.07999999999998" fill="#914249"/><rect x="720.42" y="113.75" width="30.33" height="30.33" fill="#313240"/><polygon points="750.75,113.75 750.75,144.07999999999998 720.42,144.07999999999998" fill="#ca4c4f"/><rect x="765.92" y="83.42" width="60.67" height="60.67" fill="#cb4c4f"/><polygon points="765.92,83.42 826.5899999999999,144.09 765.92,144.09" fill="#ca4c4f"/><rect x="841.75" y="83.41666666666666" width="60.666666666666664" height="60.666666666666664" fill="#222f3e"/><rect x="841.75" y="83.42" width="30.33" height="30.33" fill="#7c3e47"/><polygon points="841.75,83.42 872.08,113.75 841.75,113.75" fill="#ea5153"/><rect x="872.08" y="83.42" width="30.33" height="30.33" fill="#c84b4f"/><polygon points="902.4100000000001,83.42 902.4100000000001,113.75 872.08,113.75" fill="#373340"/><rect x="841.75" y="113.75" width="30.33" height="30.33" fill="#8e4249"/><polygon points="872.08,113.75 872.08,144.07999999999998 841.75,144.07999999999998" fill="#8e4249"/><rect x="872.08" y="113.75" width="30.33" height="30.33" fill="#d34d50"/><polygon points="872.08,113.75 902.4100000000001,144.07999999999998 872.08,144.07999999999998" fill="#513743"/><rect x="7.58" y="159.25" width="60.67" height="60.67" fill="#7f3f48"/><polygon points="7.58,159.25 68.25,219.92000000000002 7.58,219.92000000000002" fill="#dc4f51"/><rect x="83.42" y="159.25" width="60.67" height="60.67" fill="#3e3441"/><polygon points="83.42,159.25 144.09,159.25 144.09,219.92000000000002" fill="#2d313f"/><rect x="159.25" y="159.25" width="60.666666666666664" height="60.666666666666664" fill="#222f3e"/><rect x="159.25" y="159.25" width="30.33" height="30.33" fill="#ec5253"/><polygon points="159.25,159.25 189.57999999999998,189.57999999999998 159.25,189.57999999999998" fill="#b1484d"/><rect x="189.58" y="159.25" width="30.33" height="30.33" fill="#6f3c46"/><polygon points="189.58,159.25 219.91000000000003,189.57999999999998 189.58,189.57999999999998" fill="#29303f"/><rect x="159.25" y="189.58" width="30.33" height="30.33" fill="#ac474c"/><polygon points="189.57999999999998,189.58 189.57999999999998,219.91000000000003 159.25,219.91000000000003" fill="#443541"/><rect x="189.58" y="189.58" width="30.33" height="30.33" fill="#99434a"/><polygon points="189.58,189.58 219.91000000000003,189.58 189.58,219.91000000000003" fill="#de4f51"/><rect x="235.08" y="159.25" width="60.67" height="60.67" fill="#503743"/><polygon points="235.08,159.25 295.75,159.25 235.08,219.92000000000002" fill="#2f313f"/><rect x="310.92" y="159.25" width="60.67" height="60.67" fill="#27303f"/><polygon points="310.92,159.25 371.59000000000003,159.25 371.59000000000003,219.92000000000002" fill="#323240"/><rect x="386.74999999999994" y="159.25" width="60.666666666666664" height="60.666666666666664" fill="#222f3e"/><rect x="386.75" y="159.25" width="30.33" height="30.33" fill="#df4f51"/><polygon points="386.75,159.25 417.08,189.57999999999998 386.75,189.57999999999998" fill="#bd4a4e"/><rect x="417.08" y="159.25" width="30.33" height="30.33" fill="#4c3642"/><polygon points="417.08,159.25 447.40999999999997,159.25 447.40999999999997,189.57999999999998" fill="#be4a4e"/><rect x="386.75" y="189.58" width="30.33" height="30.33" fill="#94434a"/><polygon points="417.08,189.58 417.08,219.91000000000003 386.75,219.91000000000003" fill="#5b3944"/><rect x="417.08" y="189.58" width="30.33" height="30.33" fill="#6d3c46"/><polygon points="417.08,189.58 447.40999999999997,189.58 417.08,219.91000000000003" fill="#834048"/><rect x="462.5833333333333" y="159.25" width="60.666666666666664" height="60.666666666666664" fill="#222f3e"/><rect x="462.58" y="159.25" width="30.33" height="30.33" fill="#9e444b"/><polygon points="462.58,159.25 492.90999999999997,159.25 492.90999999999997,189.57999999999998" fill="#894149"/><rect x="492.92" y="159.25" width="30.33" height="30.33" fill="#bd4a4e"/><polygon points="492.92,159.25 523.25,189.57999999999998 492.92,189.57999999999998" fill="#713d46"/><rect x="462.58" y="189.58" width="30.33" height="30.33" fill="#92424a"/><polygon points="462.58,189.58 492.90999999999997,189.58 462.58,219.91000000000003" fill="#c54b4f"/><rect x="492.92" y="189.58" width="30.33" height="30.33" fill="#a6464c"/><polygon points="492.92,189.58 523.25,189.58 523.25,219.91000000000003" fill="#753d47"/><rect x="538.4166666666666" y="159.25" width="60.666666666666664" height="60.666666666666664" fill="#222f3e"/><rect x="538.42" y="159.25" width="30.33" height="30.33" fill="#bb494e"/><polygon points="538.42,159.25 568.75,159.25 538.42,189.57999999999998" fill="#ec5253"/><rect x="568.75" y="159.25" width="30.33" height="30.33" fill="#5b3944"/><polygon points="568.75,159.25 599.08,159.25 599.08,189.57999999999998" fill="#503743"/><rect x="538.42" y="189.58" width="30.33" height="30.33" fill="#4b3642"/><polygon points="568.75,189.58 568.75,219.91000000000003 538.42,219.91000000000003" fill="#ac474c"/><rect x="568.75" y="189.58" width="30.33" height="30.33" fill="#6f3c46"/><polygon points="568.75,189.58 599.08,189.58 568.75,219.91000000000003" fill="#4c3642"/><rect x="614.25" y="159.25" width="60.666666666666664" height="60.666666666666664" fill="#222f3e"/><rect x="614.25" y="159.25" width="30.33" height="30.33" fill="#5a3944"/><polygon points="614.25,159.25 644.58,189.57999999999998 614.25,189.57999999999998" fill="#e25052"/><rect x="644.58" y="159.25" width="30.33" height="30.33" fill="#2f313f"/><polygon points="644.58,159.25 674.9100000000001,159.25 674.9100000000001,189.57999999999998" fill="#e95153"/><rect x="614.25" y="189.58" width="30.33" height="30.33" fill="#6d3c46"/><polygon points="644.58,189.58 644.58,219.91000000000003 614.25,219.91000000000003" fill="#d04d50"/><rect x="644.58" y="189.58" width="30.33" height="30.33" fill="#573843"/><polygon points="674.9100000000001,189.58 674.9100000000001,219.91000000000003 644.58,219.91000000000003" fill="#b3484d"/><rect x="690.08" y="159.25" width="60.67" height="60.67" fill="#353240"/><polygon points="690.08,159.25 750.75,159.25 690.08,219.92000000000002" fill="#bd4a4e"/><rect x="765.92" y="159.25" width="60.67" height="60.67" fill="#743d46"/><polygon points="765.92,159.25 826.5899999999999,159.25 765.92,219.92000000000002" fill="#7d3f47"/><rect x="841.75" y="159.25" width="60.67" height="60.67" fill="#763d47"/><polygon points="841.75,159.25 902.42,159.25 841.75,219.92000000000002" fill="#ed5253"/><rect x="7.58" y="235.08" width="60.67" height="60.67" fill="#834048"/><polygon points="7.58,235.08 68.25,235.08 68.25,295.75" fill="#743d46"/><rect x="83.41666666666666" y="235.08333333333334" width="60.666666666666664" height="60.666666666666664" fill="#222f3e"/><rect x="83.42" y="235.08" width="30.33" height="30.33" fill="#413441"/><polygon points="83.42,235.08 113.75,235.08 113.75,265.41" fill="#7a3e47"/><rect x="113.75" y="235.08" width="30.33" height="30.33" fill="#8f4249"/><polygon points="144.07999999999998,235.08 144.07999999999998,265.41 113.75,265.41" fill="#4d3642"/><rect x="83.42" y="265.42" width="30.33" height="30.33" fill="#a2454b"/><polygon points="83.42,265.42 113.75,295.75 83.42,295.75" fill="#df5052"/><rect x="113.75" y="265.42" width="30.33" height="30.33" fill="#2c313f"/><polygon points="113.75,265.42 144.07999999999998,265.42 113.75,295.75" fill="#c84b4f"/><rect x="159.25" y="235.08333333333334" width="60.666666666666664" height="60.666666666666664" fill="#222f3e"/><rect x="159.25" y="235.08" width="30.33" height="30.33" fill="#28303f"/><polygon points="189.57999999999998,235.08 189.57999999999998,265.41 159.25,265.41" fill="#e65152"/><rect x="189.58" y="235.08" width="30.33" height="30.33" fill="#dc4f51"/><polygon points="219.91000000000003,235.08 219.91000000000003,265.41 189.58,265.41" fill="#2c313f"/><rect x="159.25" y="265.42" width="30.33" height="30.33" fill="#733d46"/><polygon points="159.25,265.42 189.57999999999998,265.42 159.25,295.75" fill="#613a44"/><rect x="189.58" y="265.42" width="30.33" height="30.33" fill="#29303f"/><polygon points="189.58,265.42 219.91000000000003,265.42 219.91000000000003,295.75" fill="#633a45"/><rect x="235.08" y="235.08" width="60.67" height="60.67" fill="#503743"/><polygon points="295.75,235.08 295.75,295.75 235.08,295.75" fill="#a2454b"/><rect x="310.92" y="235.08" width="60.67" height="60.67" fill="#a4454b"/><polygon points="310.92,235.08 371.59000000000003,235.08 371.59000000000003,295.75" fill="#e85152"/><rect x="386.75" y="235.08" width="60.67" height="60.67" fill="#c94c4f"/><polygon points="386.75,235.08 447.42,295.75 386.75,295.75" fill="#924249"/><rect x="462.5833333333333" y="235.08333333333334" width="60.666666666666664" height="60.666666666666664" fill="#222f3e"/><rect x="462.58" y="235.08" width="30.33" height="30.33" fill="#9e444b"/><polygon points="492.90999999999997,235.08 492.90999999999997,265.41 462.58,265.41" fill="#613a44"/><rect x="492.92" y="235.08" width="30.33" height="30.33" fill="#d94e51"/><polygon points="492.92,235.08 523.25,235.08 523.25,265.41" fill="#d34d50"/><rect x="462.58" y="265.42" width="30.33" height="30.33" fill="#30313f"/><polygon points="492.90999999999997,265.42 492.90999999999997,295.75 462.58,295.75" fill="#a4454b"/><rect x="492.92" y="265.42" width="30.33" height="30.33" fill="#ad474c"/><polygon points="492.92,265.42 523.25,265.42 523.25,295.75" fill="#b3484d"/><rect x="538.4166666666666" y="235.08333333333334" width="60.666666666666664" height="60.666666666666664" fill="#222f3e"/><rect x="538.42" y="235.08" width="30.33" height="30.33" fill="#93424a"/><polygon points="538.42,235.08 568.75,265.41 538.42,265.41" fill="#3e3441"/><rect x="568.75" y="235.08" width="30.33" height="30.33" fill="#683b45"/><polygon points="568.75,235.08 599.08,265.41 568.75,265.41" fill="#e35052"/><rect x="538.42" y="265.42" width="30.33" height="30.33" fill="#a7464c"/><polygon points="538.42,265.42 568.75,265.42 538.42,295.75" fill="#563843"/><rect x="568.75" y="265.42" width="30.33" height="30.33" fill="#df4f51"/><polygon points="568.75,265.42 599.08,265.42 599.08,295.75" fill="#453542"/><rect x="614.25" y="235.08333333333334" width="60.666666666666664" height="60.666666666666664" fill="#222f3e"/><rect x="614.25" y="235.08" width="30.33" height="30.33" fill="#ee5253"/><polygon points="614.25,235.08 644.58,265.41 614.25,265.41" fill="#eb5253"/><rect x="644.58" y="235.08" width="30.33" height="30.33" fill="#373340"/><polygon points="674.9100000000001,235.08 674.9100000000001,265.41 644.58,265.41" fill="#523743"/><rect x="614.25" y="265.42" width="30.33" height="30.33" fill="#ca4c4f"/><polygon points="644.58,265.42 644.58,295.75 614.25,295.75" fill="#d24d50"/><rect x="644.58" y="265.42" width="30.33" height="30.33" fill="#894149"/><polygon points="674.9100000000001,265.42 674.9100000000001,295.75 644.58,295.75" fill="#ec5253"/><rect x="690.0833333333334" y="235.08333333333334" width="60.666666666666664" height="60.666666666666664" fill="#222f3e"/><rect x="690.08" y="235.08" width="30.33" height="30.33" fill="#413441"/><polygon points="690.08,235.08 720.4100000000001,235.08 690.08,265.41" fill="#ad474c"/><rect x="720.42" y="235.08" width="30.33" height="30.33" fill="#653b45"/><polygon points="720.42,235.08 750.75,235.08 750.75,265.41" fill="#824048"/><rect x="690.08" y="265.42" width="30.33" height="30.33" fill="#99434a"/><polygon points="690.08,265.42 720.4100000000001,265.42 720.4100000000001,295.75" fill="#4c3642"/><rect x="720.42" y="265.42" width="30.33" height="30.33" fill="#623a45"/><polygon points="720.42,265.42 750.75,295.75 720.42,295.75" fill="#643a45"/><rect x="765.9166666666666" y="235.08333333333334" width="60.666666666666664" height="60.666666666666664" fill="#222f3e"/><rect x="765.92" y="235.08" width="30.33" height="30.33" fill="#6f3c46"/><polygon points="765.92,235.08 796.25,235.08 796.25,265.41" fill="#864048"/><rect x="796.25" y="235.08" width="30.33" height="30.33" fill="#c54b4f"/><polygon points="796.25,235.08 826.58,265.41 796.25,265.41" fill="#483542"/><rect x="765.92" y="265.42" width="30.33" height="30.33" fill="#b9494e"/><polygon points="796.25,265.42 796.25,295.75 765.92,295.75" fill="#b6484d"/><rect x="796.25" y="265.42" width="30.33" height="30.33" fill="#dd4f51"/><polygon points="796.25,265.42 826.58,295.75 796.25,295.75" fill="#252f3e"/><rect x="841.75" y="235.08" width="60.67" height="60.67" fill="#7b3e47"/><polygon points="902.42,235.08 902.42,295.75 841.75,295.75" fill="#713d46"/><rect x="7.583333333333333" y="310.91666666666663" width="60.666666666666664" height="60.666666666666664" fill="#222f3e"/><rect x="7.58" y="310.92" width="30.33" height="30.33" fill="#9b444a"/><polygon points="7.58,310.92 37.91,310.92 37.91,341.25" fill="#ca4c4f"/><rect x="37.92" y="310.92" width="30.33" height="30.33" fill="#bd4a4e"/><polygon points="37.92,310.92 68.25,310.92 68.25,341.25" fill="#713d46"/><rect x="7.58" y="341.25" width="30.33" height="30.33" fill="#bd4a4e"/><polygon points="7.58,341.25 37.91,341.25 7.58,371.58" fill="#613a45"/><rect x="37.92" y="341.25" width="30.33" height="30.33" fill="#25303e"/><polygon points="37.92,341.25 68.25,341.25 68.25,371.58" fill="#b2484d"/><rect x="83.42" y="310.92" width="60.67" height="60.67" fill="#cb4c4f"/><polygon points="83.42,310.92 144.09,371.59000000000003 83.42,371.59000000000003" fill="#763d47"/><rect x="159.25" y="310.92" width="60.67" height="60.67" fill="#95434a"/><polygon points="159.25,310.92 219.92000000000002,310.92 219.92000000000002,371.59000000000003" fill="#844048"/><rect x="235.08333333333334" y="310.91666666666663" width="60.666666666666664" height="60.666666666666664" fill="#222f3e"/><rect x="235.08" y="310.92" width="30.33" height="30.33" fill="#713c46"/><polygon points="235.08,310.92 265.41,310.92 235.08,341.25" fill="#e15052"/><rect x="265.42" y="310.92" width="30.33" height="30.33" fill="#583844"/><polygon points="265.42,310.92 295.75,310.92 295.75,341.25" fill="#4c3642"/><rect x="235.08" y="341.25" width="30.33" height="30.33" fill="#e05052"/><polygon points="235.08,341.25 265.41,341.25 235.08,371.58" fill="#4f3743"/><rect x="265.42" y="341.25" width="30.33" height="30.33" fill="#8a4149"/><polygon points="265.42,341.25 295.75,341.25 295.75,371.58" fill="#e05052"/><rect x="310.91666666666663" y="310.91666666666663" width="60.666666666666664" height="60.666666666666664" fill="#222f3e"/><rect x="310.92" y="310.92" width="30.33" height="30.33" fill="#98434a"/><polygon points="310.92,310.92 341.25,310.92 310.92,341.25" fill="#333240"/><rect x="341.25" y="310.92" width="30.33" height="30.33" fill="#563843"/><polygon points="371.58,310.92 371.58,341.25 341.25,341.25" fill="#b1484d"/><rect x="310.92" y="341.25" width="30.33" height="30.33" fill="#e45052"/><polygon points="310.92,341.25 341.25,371.58 310.92,371.58" fill="#b5484d"/><rect x="341.25" y="341.25" width="30.33" height="30.33" fill="#252f3e"/><polygon points="341.25,341.25 371.58,371.58 341.25,371.58" fill="#c34b4f"/><rect x="386.75" y="310.92" width="60.67" height="60.67" fill="#553843"/><polygon points="386.75,310.92 447.42,371.59000000000003 386.75,371.59000000000003" fill="#7c3e47"/><rect x="462.5833333333333" y="310.91666666666663" width="60.666666666666664" height="60.666666666666664" fill="#222f3e"/><rect x="462.58" y="310.92" width="30.33" height="30.33" fill="#733d46"/><polygon points="492.90999999999997,310.92 492.90999999999997,341.25 462.58,341.25" fill="#e15052"/><rect x="492.92" y="310.92" width="30.33" height="30.33" fill="#483542"/><polygon points="492.92,310.92 523.25,310.92 523.25,341.25" fill="#854048"/><rect x="462.58" y="341.25" width="30.33" height="30.33" fill="#da4f51"/><polygon points="462.58,341.25 492.90999999999997,371.58 462.58,371.58" fill="#c84c4f"/><rect x="492.92" y="341.25" width="30.33" height="30.33" fill="#783e47"/><polygon points="492.92,341.25 523.25,341.25 523.25,371.58" fill="#6d3c46"/><rect x="538.4166666666666" y="310.91666666666663" width="60.666666666666664" height="60.666666666666664" fill="#222f3e"/><rect x="538.42" y="310.92" width="30.33" height="30.33" fill="#5d3944"/><polygon points="538.42,310.92 568.75,310.92 568.75,341.25" fill="#453542"/><rect x="568.75" y="310.92" width="30.33" height="30.33" fill="#4b3642"/><polygon points="568.75,310.92 599.08,310.92 568.75,341.25" fill="#3d3441"/><rect x="538.42" y="341.25" width="30.33" height="30.33" fill="#393340"/><polygon points="538.42,341.25 568.75,341.25 568.75,371.58" fill="#373340"/><rect x="568.75" y="341.25" width="30.33" height="30.33" fill="#8c4149"/><polygon points="568.75,341.25 599.08,341.25 568.75,371.58" fill="#be4a4e"/><rect x="614.25" y="310.92" width="60.67" height="60.67" fill="#e25052"/><polygon points="614.25,310.92 674.92,310.92 614.25,371.59000000000003" fill="#793e47"/><rect x="690.0833333333334" y="310.91666666666663" width="60.666666666666664" height="60.666666666666664" fill="#222f3e"/><rect x="690.08" y="310.92" width="30.33" height="30.33" fill="#803f48"/><polygon points="690.08,310.92 720.4100000000001,310.92 690.08,341.25" fill="#3e3441"/><rect x="720.42" y="310.92" width="30.33" height="30.33" fill="#323240"/><polygon points="720.42,310.92 750.75,310.92 720.42,341.25" fill="#593844"/><rect x="690.08" y="341.25" width="30.33" height="30.33" fill="#d64e51"/><polygon points="690.08,341.25 720.4100000000001,341.25 720.4100000000001,371.58" fill="#3e3441"/><rect x="720.42" y="341.25" width="30.33" height="30.33" fill="#5f3a44"/><polygon points="720.42,341.25 750.75,341.25 720.42,371.58" fill="#7c3e47"/><rect x="765.92" y="310.92" width="60.67" height="60.67" fill="#ea5153"/><polygon points="765.92,310.92 826.5899999999999,310.92 826.5899999999999,371.59000000000003" fill="#683b45"/><rect x="841.75" y="310.91666666666663" width="60.666666666666664" height="60.666666666666664" fill="#222f3e"/><rect x="841.75" y="310.92" width="30.33" height="30.33" fill="#cc4c50"/><polygon points="841.75,310.92 872.08,310.92 872.08,341.25" fill="#7e3f47"/><rect x="872.08" y="310.92" width="30.33" height="30.33" fill="#93424a"/><polygon points="872.08,310.92 902.4100000000001,310.92 902.4100000000001,341.25" fill="#a3454b"/><rect x="841.75" y="341.25" width="30.33" height="30.33" fill="#3b3341"/><polygon points="872.08,341.25 872.08,371.58 841.75,371.58" fill="#c44b4f"/><rect x="872.08" y="341.25" width="30.33" height="30.33" fill="#92424a"/><polygon points="872.08,341.25 902.4100000000001,341.25 902.4100000000001,371.58" fill="#c14a4e"/><rect x="7.58" y="386.75" width="60.67" height="60.67" fill="#373340"/><polygon points="7.58,386.75 68.25,386.75 7.58,447.42" fill="#aa464c"/><rect x="83.42" y="386.75" width="60.67" height="60.67" fill="#b4484d"/><polygon points="83.42,386.75 144.09,386.75 83.42,447.42" fill="#623a45"/><rect x="159.25" y="386.74999999999994" width="60.666666666666664" height="60.666666666666664" fill="#222f3e"/><rect x="159.25" y="386.75" width="30.33" height="30.33" fill="#763d47"/><polygon points="159.25,386.75 189.57999999999998,386.75 189.57999999999998,417.08" fill="#343240"/><rect x="189.58" y="386.75" width="30.33" height="30.33" fill="#443541"/><polygon points="189.58,386.75 219.91000000000003,386.75 189.58,417.08" fill="#e15052"/><rect x="159.25" y="417.08" width="30.33" height="30.33" fill="#343240"/><polygon points="159.25,417.08 189.57999999999998,417.08 189.57999999999998,447.40999999999997" fill="#9e444b"/><rect x="189.58" y="417.08" width="30.33" height="30.33" fill="#e65152"/><polygon points="189.58,417.08 219.91000000000003,447.40999999999997 189.58,447.40999999999997" fill="#ea5153"/><rect x="235.08333333333334" y="386.74999999999994" width="60.666666666666664" height="60.666666666666664" fill="#222f3e"/><rect x="235.08" y="386.75" width="30.33" height="30.33" fill="#2b313f"/><polygon points="235.08,386.75 265.41,417.08 235.08,417.08" fill="#232f3e"/><rect x="265.42" y="386.75" width="30.33" height="30.33" fill="#373340"/><polygon points="265.42,386.75 295.75,386.75 295.75,417.08" fill="#593844"/><rect x="235.08" y="417.08" width="30.33" height="30.33" fill="#363240"/><polygon points="235.08,417.08 265.41,417.08 235.08,447.40999999999997" fill="#b9494d"/><rect x="265.42" y="417.08" width="30.33" height="30.33" fill="#d14d50"/><polygon points="295.75,417.08 295.75,447.40999999999997 265.42,447.40999999999997" fill="#763d47"/><rect x="310.91666666666663" y="386.74999999999994" width="60.666666666666664" height="60.666666666666664" fill="#222f3e"/><rect x="310.92" y="386.75" width="30.33" height="30.33" fill="#d94e51"/><polygon points="310.92,386.75 341.25,386.75 341.25,417.08" fill="#d84e51"/><rect x="341.25" y="386.75" width="30.33" height="30.33" fill="#d54e50"/><polygon points="341.25,386.75 371.58,417.08 341.25,417.08" fill="#9f454b"/><rect x="310.92" y="417.08" width="30.33" height="30.33" fill="#683b45"/><polygon points="310.92,417.08 341.25,417.08 341.25,447.40999999999997" fill="#d54e50"/><rect x="341.25" y="417.08" width="30.33" height="30.33" fill="#eb5153"/><polygon points="341.25,417.08 371.58,447.40999999999997 341.25,447.40999999999997" fill="#453542"/><rect x="386.75" y="386.75" width="60.67" height="60.67" fill="#9b444a"/><polygon points="386.75,386.75 447.42,386.75 447.42,447.42" fill="#793e47"/><rect x="462.5833333333333" y="386.74999999999994" width="60.666666666666664" height="60.666666666666664" fill="#222f3e"/><rect x="462.58" y="386.75" width="30.33" height="30.33" fill="#29303f"/><polygon points="462.58,386.75 492.90999999999997,417.08 462.58,417.08" fill="#2f313f"/><rect x="492.92" y="386.75" width="30.33" height="30.33" fill="#5b3944"/><polygon points="523.25,386.75 523.25,417.08 492.92,417.08" fill="#683b45"/><rect x="462.58" y="417.08" width="30.33" height="30.33" fill="#a0454b"/><polygon points="462.58,417.08 492.90999999999997,417.08 492.90999999999997,447.40999999999997" fill="#834048"/><rect x="492.92" y="417.08" width="30.33" height="30.33" fill="#a5454b"/><polygon points="492.92,417.08 523.25,447.40999999999997 492.92,447.40999999999997" fill="#232f3e"/><rect x="538.4166666666666" y="386.74999999999994" width="60.666666666666664" height="60.666666666666664" fill="#222f3e"/><rect x="538.42" y="386.75" width="30.33" height="30.33" fill="#2e313f"/><polygon points="538.42,386.75 568.75,386.75 538.42,417.08" fill="#834048"/><rect x="568.75" y="386.75" width="30.33" height="30.33" fill="#ea5153"/><polygon points="568.75,386.75 599.08,386.75 568.75,417.08" fill="#353240"/><rect x="538.42" y="417.08" width="30.33" height="30.33" fill="#ec5253"/><polygon points="538.42,417.08 568.75,417.08 568.75,447.40999999999997" fill="#b1484d"/><rect x="568.75" y="417.08" width="30.33" height="30.33" fill="#ec5253"/><polygon points="599.08,417.08 599.08,447.40999999999997 568.75,447.40999999999997" fill="#4d3642"/><rect x="614.25" y="386.74999999999994" width="60.666666666666664" height="60.666666666666664" fill="#222f3e"/><rect x="614.25" y="386.75" width="30.33" height="30.33" fill="#9b444a"/><polygon points="614.25,386.75 644.58,417.08 614.25,417.08" fill="#483642"/><rect x="644.58" y="386.75" width="30.33" height="30.33" fill="#26303e"/><polygon points="644.58,386.75 674.9100000000001,386.75 644.58,417.08" fill="#613a45"/><rect x="614.25" y="417.08" width="30.33" height="30.33" fill="#393340"/><polygon points="614.25,417.08 644.58,417.08 614.25,447.40999999999997" fill="#6e3c46"/><rect x="644.58" y="417.08" width="30.33" height="30.33" fill="#e85152"/><polygon points="644.58,417.08 674.9100000000001,447.40999999999997 644.58,447.40999999999997" fill="#d64e50"/><rect x="690.08" y="386.75" width="60.67" height="60.67" fill="#d94e51"/><polygon points="690.08,386.75 750.75,386.75 690.08,447.42" fill="#533743"/><rect x="765.92" y="386.75" width="60.67" height="60.67" fill="#28303f"/><polygon points="765.92,386.75 826.5899999999999,386.75 765.92,447.42" fill="#b8494d"/><rect x="841.75" y="386.75" width="60.67" height="60.67" fill="#e95152"/><polygon points="841.75,386.75 902.42,386.75 841.75,447.42" fill="#d94e51"/><rect x="7.58" y="462.58" width="60.67" height="60.67" fill="#bb494e"/><polygon points="7.58,462.58 68.25,462.58 7.58,523.25" fill="#563843"/><rect x="83.41666666666666" y="462.5833333333333" width="60.666666666666664" height="60.666666666666664" fill="#222f3e"/><rect x="83.42" y="462.58" width="30.33" height="30.33" fill="#6e3c46"/><polygon points="83.42,462.58 113.75,492.90999999999997 83.42,492.90999999999997" fill="#94434a"/><rect x="113.75" y="462.58" width="30.33" height="30.33" fill="#493642"/><polygon points="113.75,462.58 144.07999999999998,462.58 144.07999999999998,492.90999999999997" fill="#6d3c46"/><rect x="83.42" y="492.92" width="30.33" height="30.33" fill="#cf4d50"/><polygon points="83.42,492.92 113.75,523.25 83.42,523.25" fill="#723d46"/><rect x="113.75" y="492.92" width="30.33" height="30.33" fill="#8b4149"/><polygon points="113.75,492.92 144.07999999999998,492.92 144.07999999999998,523.25" fill="#643a45"/><rect x="159.25" y="462.58" width="60.67" height="60.67" fill="#5c3944"/><polygon points="159.25,462.58 219.92000000000002,462.58 159.25,523.25" fill="#2c313f"/><rect x="235.08333333333334" y="462.5833333333333" width="60.666666666666664" height="60.666666666666664" fill="#222f3e"/><rect x="235.08" y="462.58" width="30.33" height="30.33" fill="#c74b4f"/><polygon points="235.08,462.58 265.41,462.58 265.41,492.90999999999997" fill="#eb5253"/><rect x="265.42" y="462.58" width="30.33" height="30.33" fill="#5c3944"/><polygon points="265.42,462.58 295.75,462.58 265.42,492.90999999999997" fill="#a1454b"/><rect x="235.08" y="492.92" width="30.33" height="30.33" fill="#793e47"/><polygon points="235.08,492.92 265.41,492.92 265.41,523.25" fill="#bd4a4e"/><rect x="265.42" y="492.92" width="30.33" height="30.33" fill="#26303e"/><polygon points="265.42,492.92 295.75,523.25 265.42,523.25" fill="#703c46"/><rect x="310.91666666666663" y="462.5833333333333" width="60.666666666666664" height="60.666666666666664" fill="#222f3e"/><rect x="310.92" y="462.58" width="30.33" height="30.33" fill="#874048"/><polygon points="310.92,462.58 341.25,462.58 310.92,492.90999999999997" fill="#c84b4f"/><rect x="341.25" y="462.58" width="30.33" height="30.33" fill="#2a303f"/><polygon points="341.25,462.58 371.58,462.58 371.58,492.90999999999997" fill="#783e47"/><rect x="310.92" y="492.92" width="30.33" height="30.33" fill="#be4a4e"/><polygon points="310.92,492.92 341.25,523.25 310.92,523.25" fill="#b0474d"/><rect x="341.25" y="492.92" width="30.33" height="30.33" fill="#7a3e47"/><polygon points="371.58,492.92 371.58,523.25 341.25,523.25" fill="#c94c4f"/><rect x="386.74999999999994" y="462.5833333333333" width="60.666666666666664" height="60.666666666666664" fill="#222f3e"/><rect x="386.75" y="462.58" width="30.33" height="30.33" fill="#9c444b"/><polygon points="417.08,462.58 417.08,492.90999999999997 386.75,492.90999999999997" fill="#9a444a"/><rect x="417.08" y="462.58" width="30.33" height="30.33" fill="#803f48"/><polygon points="417.08,462.58 447.40999999999997,462.58 417.08,492.90999999999997" fill="#884149"/><rect x="386.75" y="492.92" width="30.33" height="30.33" fill="#d94e51"/><polygon points="417.08,492.92 417.08,523.25 386.75,523.25" fill="#603a44"/><rect x="417.08" y="492.92" width="30.33" height="30.33" fill="#5a3944"/><polygon points="447.40999999999997,492.92 447.40999999999997,523.25 417.08,523.25" fill="#a7464c"/><rect x="462.58" y="462.58" width="60.67" height="60.67" fill="#663b45"/><polygon points="462.58,462.58 523.25,462.58 523.25,523.25" fill="#b0474d"/><rect x="538.4166666666666" y="462.5833333333333" width="60.666666666666664" height="60.666666666666664" fill="#222f3e"/><rect x="538.42" y="462.58" width="30.33" height="30.33" fill="#93424a"/><polygon points="568.75,462.58 568.75,492.90999999999997 538.42,492.90999999999997" fill="#8e4249"/><rect x="568.75" y="462.58" width="30.33" height="30.33" fill="#3b3341"/><polygon points="599.08,462.58 599.08,492.90999999999997 568.75,492.90999999999997" fill="#95434a"/><rect x="538.42" y="492.92" width="30.33" height="30.33" fill="#753d47"/><polygon points="538.42,492.92 568.75,523.25 538.42,523.25" fill="#9a444a"/><rect x="568.75" y="492.92" width="30.33" height="30.33" fill="#8a4149"/><polygon points="568.75,492.92 599.08,523.25 568.75,523.25" fill="#b1474d"/><rect x="614.25" y="462.5833333333333" width="60.666666666666664" height="60.666666666666664" fill="#222f3e"/><rect x="614.25" y="462.58" width="30.33" height="30.33" fill="#613a44"/><polygon points="614.25,462.58 644.58,462.58 644.58,492.90999999999997" fill="#ec5253"/><rect x="644.58" y="462.58" width="30.33" height="30.33" fill="#eb5153"/><polygon points="644.58,462.58 674.9100000000001,462.58 644.58,492.90999999999997" fill="#e55152"/><rect x="614.25" y="492.92" width="30.33" height="30.33" fill="#7f3f48"/><polygon points="614.25,492.92 644.58,492.92 644.58,523.25" fill="#403441"/><rect x="644.58" y="492.92" width="30.33" height="30.33" fill="#e65152"/><polygon points="674.9100000000001,492.92 674.9100000000001,523.25 644.58,523.25" fill="#95434a"/><rect x="690.0833333333334" y="462.5833333333333" width="60.666666666666664" height="60.666666666666664" fill="#222f3e"/><rect x="690.08" y="462.58" width="30.33" height="30.33" fill="#2a303f"/><polygon points="690.08,462.58 720.4100000000001,462.58 720.4100000000001,492.90999999999997" fill="#533743"/><rect x="720.42" y="462.58" width="30.33" height="30.33" fill="#c14a4e"/><polygon points="720.42,462.58 750.75,462.58 720.42,492.90999999999997" fill="#8f4249"/><rect x="690.08" y="492.92" width="30.33" height="30.33" fill="#453542"/><polygon points="690.08,492.92 720.4100000000001,492.92 690.08,523.25" fill="#ce4c50"/><rect x="720.42" y="492.92" width="30.33" height="30.33" fill="#6a3b45"/><polygon points="720.42,492.92 750.75,492.92 720.42,523.25" fill="#4b3642"/><rect x="765.9166666666666" y="462.5833333333333" width="60.666666666666664" height="60.666666666666664" fill="#222f3e"/><rect x="765.92" y="462.58" width="30.33" height="30.33" fill="#9b444b"/><polygon points="765.92,462.58 796.25,492.90999999999997 765.92,492.90999999999997" fill="#6e3c46"/><rect x="796.25" y="462.58" width="30.33" height="30.33" fill="#7b3e47"/><polygon points="826.58,462.58 826.58,492.90999999999997 796.25,492.90999999999997" fill="#824048"/><rect x="765.92" y="492.92" width="30.33" height="30.33" fill="#6d3c46"/><polygon points="765.92,492.92 796.25,492.92 765.92,523.25" fill="#3e3441"/><rect x="796.25" y="492.92" width="30.33" height="30.33" fill="#9e444b"/><polygon points="826.58,492.92 826.58,523.25 796.25,523.25" fill="#e75152"/><rect x="841.75" y="462.5833333333333" width="60.666666666666664" height="60.666666666666664" fill="#222f3e"/><rect x="841.75" y="462.58" width="30.33" height="30.33" fill="#6d3c46"/><polygon points="872.08,462.58 872.08,492.90999999999997 841.75,492.90999999999997" fill="#763d47"/><rect x="872.08" y="462.58" width="30.33" height="30.33" fill="#503743"/><polygon points="872.08,462.58 902.4100000000001,462.58 872.08,492.90999999999997" fill="#e45052"/><rect x="841.75" y="492.92" width="30.33" height="30.33" fill="#2c313f"/><polygon points="841.75,492.92 872.08,523.25 841.75,523.25" fill="#ac474c"/><rect x="872.08" y="492.92" width="30.33" height="30.33" fill="#2f313f"/><polygon points="872.08,492.92 902.4100000000001,492.92 872.08,523.25" fill="#27303f"/><rect x="7.583333333333333" y="538.4166666666666" width="60.666666666666664" height="60.666666666666664" fill="#222f3e"/><rect x="7.58" y="538.42" width="30.33" height="30.33" fill="#7f3f48"/><polygon points="37.91,538.42 37.91,568.75 7.58,568.75" fill="#343240"/><rect x="37.92" y="538.42" width="30.33" height="30.33" fill="#232f3e"/><polygon points="37.92,538.42 68.25,568.75 37.92,568.75" fill="#d24d50"/><rect x="7.58" y="568.75" width="30.33" height="30.33" fill="#7f3f48"/><polygon points="37.91,568.75 37.91,599.08 7.58,599.08" fill="#3d3441"/><rect x="37.92" y="568.75" width="30.33" height="30.33" fill="#593944"/><polygon points="37.92,568.75 68.25,568.75 37.92,599.08" fill="#563843"/><rect x="83.41666666666666" y="538.4166666666666" width="60.666666666666664" height="60.666666666666664" fill="#222f3e"/><rect x="83.42" y="538.42" width="30.33" height="30.33" fill="#8c4149"/><polygon points="113.75,538.42 113.75,568.75 83.42,568.75" fill="#b5484d"/><rect x="113.75" y="538.42" width="30.33" height="30.33" fill="#b3484d"/><polygon points="113.75,538.42 144.07999999999998,538.42 144.07999999999998,568.75" fill="#cb4c4f"/><rect x="83.42" y="568.75" width="30.33" height="30.33" fill="#8d4149"/><polygon points="83.42,568.75 113.75,568.75 83.42,599.08" fill="#97434a"/><rect x="113.75" y="568.75" width="30.33" height="30.33" fill="#b1484d"/><polygon points="113.75,568.75 144.07999999999998,568.75 113.75,599.08" fill="#94434a"/><rect x="159.25" y="538.4166666666666" width="60.666666666666664" height="60.666666666666664" fill="#222f3e"/><rect x="159.25" y="538.42" width="30.33" height="30.33" fill="#c24a4e"/><polygon points="159.25,538.42 189.57999999999998,568.75 159.25,568.75" fill="#8b4149"/><rect x="189.58" y="538.42" width="30.33" height="30.33" fill="#c54b4f"/><polygon points="189.58,538.42 219.91000000000003,538.42 219.91000000000003,568.75" fill="#553843"/><rect x="159.25" y="568.75" width="30.33" height="30.33" fill="#443542"/><polygon points="159.25,568.75 189.57999999999998,568.75 159.25,599.08" fill="#e75152"/><rect x="189.58" y="568.75" width="30.33" height="30.33" fill="#373340"/><polygon points="219.91000000000003,568.75 219.91000000000003,599.08 189.58,599.08" fill="#443541"/><rect x="235.08" y="538.42" width="60.67" height="60.67" fill="#423541"/><polygon points="235.08,538.42 295.75,599.0899999999999 235.08,599.0899999999999" fill="#393340"/><rect x="310.91666666666663" y="538.4166666666666" width="60.666666666666664" height="60.666666666666664" fill="#222f3e"/><rect x="310.92" y="538.42" width="30.33" height="30.33" fill="#b1484d"/><polygon points="310.92,538.42 341.25,568.75 310.92,568.75" fill="#593844"/><rect x="341.25" y="538.42" width="30.33" height="30.33" fill="#813f48"/><polygon points="341.25,538.42 371.58,538.42 341.25,568.75" fill="#803f48"/><rect x="310.92" y="568.75" width="30.33" height="30.33" fill="#9c444b"/><polygon points="310.92,568.75 341.25,568.75 341.25,599.08" fill="#503743"/><rect x="341.25" y="568.75" width="30.33" height="30.33" fill="#ae474c"/><polygon points="341.25,568.75 371.58,568.75 341.25,599.08" fill="#d14d50"/><rect x="386.75" y="538.42" width="60.67" height="60.67" fill="#9f444b"/><polygon points="386.75,538.42 447.42,538.42 447.42,599.0899999999999" fill="#6d3c46"/><rect x="462.58" y="538.42" width="60.67" height="60.67" fill="#eb5153"/><polygon points="462.58,538.42 523.25,538.42 523.25,599.0899999999999" fill="#483642"/><rect x="538.4166666666666" y="538.4166666666666" width="60.666666666666664" height="60.666666666666664" fill="#222f3e"/><rect x="538.42" y="538.42" width="30.33" height="30.33" fill="#7e3f47"/><polygon points="538.42,538.42 568.75,538.42 568.75,568.75" fill="#6a3b45"/><rect x="568.75" y="538.42" width="30.33" height="30.33" fill="#383340"/><polygon points="568.75,538.42 599.08,538.42 568.75,568.75" fill="#5f3a44"/><rect x="538.42" y="568.75" width="30.33" height="30.33" fill="#2d313f"/><polygon points="538.42,568.75 568.75,568.75 538.42,599.08" fill="#96434a"/><rect x="568.75" y="568.75" width="30.33" height="30.33" fill="#ab464c"/><polygon points="568.75,568.75 599.08,568.75 568.75,599.08" fill="#663b45"/><rect x="614.25" y="538.4166666666666" width="60.666666666666664" height="60.666666666666664" fill="#222f3e"/><rect x="614.25" y="538.42" width="30.33" height="30.33" fill="#7f3f48"/><polygon points="614.25,538.42 644.58,538.42 644.58,568.75" fill="#6b3c46"/><rect x="644.58" y="538.42" width="30.33" height="30.33" fill="#643a45"/><polygon points="644.58,538.42 674.9100000000001,568.75 644.58,568.75" fill="#c04a4e"/><rect x="614.25" y="568.75" width="30.33" height="30.33" fill="#6c3c46"/><polygon points="614.25,568.75 644.58,599.08 614.25,599.08" fill="#ca4c4f"/><rect x="644.58" y="568.75" width="30.33" height="30.33" fill="#e95152"/><polygon points="674.9100000000001,568.75 674.9100000000001,599.08 644.58,599.08" fill="#99434a"/><rect x="690.0833333333334" y="538.4166666666666" width="60.666666666666664" height="60.666666666666664" fill="#222f3e"/><rect x="690.08" y="538.42" width="30.33" height="30.33" fill="#823f48"/><polygon points="690.08,538.42 720.4100000000001,538.42 720.4100000000001,568.75" fill="#663b45"/><rect x="720.42" y="538.42" width="30.33" height="30.33" fill="#8f4249"/><polygon points="720.42,538.42 750.75,568.75 720.42,568.75" fill="#2b303f"/><rect x="690.08" y="568.75" width="30.33" height="30.33" fill="#252f3e"/><polygon points="690.08,568.75 720.4100000000001,599.08 690.08,599.08" fill="#763d47"/><rect x="720.42" y="568.75" width="30.33" height="30.33" fill="#30313f"/><polygon points="720.42,568.75 750.75,599.08 720.42,599.08" fill="#b6484d"/><rect x="765.92" y="538.42" width="60.67" height="60.67" fill="#373340"/><polygon points="765.92,538.42 826.5899999999999,599.0899999999999 765.92,599.0899999999999" fill="#894149"/><rect x="841.75" y="538.4166666666666" width="60.666666666666664" height="60.666666666666664" fill="#222f3e"/><rect x="841.75" y="538.42" width="30.33" height="30.33" fill="#393340"/><polygon points="841.75,538.42 872.08,538.42 841.75,568.75" fill="#bb494e"/><rect x="872.08" y="538.42" width="30.33" height="30.33" fill="#e25052"/><polygon points="872.08,538.42 902.4100000000001,538.42 872.08,568.75" fill="#523743"/><rect x="841.75" y="568.75" width="30.33" height="30.33" fill="#ec5253"/><polygon points="841.75,568.75 872.08,599.08 841.75,599.08" fill="#b0474d"/><rect x="872.08" y="568.75" width="30.33" height="30.33" fill="#783e47"/><polygon points="872.08,568.75 902.4100000000001,568.75 872.08,599.08" fill="#a0454b"/><rect x="7.58" y="614.25" width="60.67" height="60.67" fill="#cf4d50"/><polygon points="7.58,614.25 68.25,614.25 7.58,674.92" fill="#4b3642"/><rect x="83.42" y="614.25" width="60.67" height="60.67" fill="#7e3f47"/><polygon points="83.42,614.25 144.09,614.25 83.42,674.92" fill="#5b3944"/><rect x="159.25" y="614.25" width="60.67" height="60.67" fill="#713d46"/><polygon points="219.92000000000002,614.25 219.92000000000002,674.92 159.25,674.92" fill="#c54b4f"/><rect x="235.08" y="614.25" width="60.67" height="60.67" fill="#2e313f"/><polygon points="235.08,614.25 295.75,614.25 235.08,674.92" fill="#353240"/><rect x="310.91666666666663" y="614.25" width="60.666666666666664" height="60.666666666666664" fill="#222f3e"/><rect x="310.92" y="614.25" width="30.33" height="30.33" fill="#753d47"/><polygon points="310.92,614.25 341.25,644.58 310.92,644.58" fill="#4d3642"/><rect x="341.25" y="614.25" width="30.33" height="30.33" fill="#493642"/><polygon points="341.25,614.25 371.58,644.58 341.25,644.58" fill="#5e3944"/><rect x="310.92" y="644.58" width="30.33" height="30.33" fill="#603a44"/><polygon points="341.25,644.58 341.25,674.9100000000001 310.92,674.9100000000001" fill="#af474d"/><rect x="341.25" y="644.58" width="30.33" height="30.33" fill="#854048"/><polygon points="341.25,644.58 371.58,644.58 371.58,674.9100000000001" fill="#bb494e"/><rect x="386.74999999999994" y="614.25" width="60.666666666666664" height="60.666666666666664" fill="#222f3e"/><rect x="386.75" y="614.25" width="30.33" height="30.33" fill="#b8494d"/><polygon points="417.08,614.25 417.08,644.58 386.75,644.58" fill="#573843"/><rect x="417.08" y="614.25" width="30.33" height="30.33" fill="#ae474c"/><polygon points="417.08,614.25 447.40999999999997,614.25 417.08,644.58" fill="#884149"/><rect x="386.75" y="644.58" width="30.33" height="30.33" fill="#824048"/><polygon points="386.75,644.58 417.08,644.58 386.75,674.9100000000001" fill="#653b45"/><rect x="417.08" y="644.58" width="30.33" height="30.33" fill="#ea5153"/><polygon points="417.08,644.58 447.40999999999997,674.9100000000001 417.08,674.9100000000001" fill="#583844"/><rect x="462.58" y="614.25" width="60.67" height="60.67" fill="#673b45"/><polygon points="523.25,614.25 523.25,674.92 462.58,674.92" fill="#453542"/><rect x="538.4166666666666" y="614.25" width="60.666666666666664" height="60.666666666666664" fill="#222f3e"/><rect x="538.42" y="614.25" width="30.33" height="30.33" fill="#3e3441"/><polygon points="538.42,614.25 568.75,614.25 538.42,644.58" fill="#803f48"/><rect x="568.75" y="614.25" width="30.33" height="30.33" fill="#e95153"/><polygon points="568.75,614.25 599.08,614.25 568.75,644.58" fill="#813f48"/><rect x="538.42" y="644.58" width="30.33" height="30.33" fill="#543843"/><polygon points="538.42,644.58 568.75,674.9100000000001 538.42,674.9100000000001" fill="#ed5253"/><rect x="568.75" y="644.58" width="30.33" height="30.33" fill="#4e3743"/><polygon points="568.75,644.58 599.08,644.58 599.08,674.9100000000001" fill="#7a3e47"/><rect x="614.25" y="614.25" width="60.666666666666664" height="60.666666666666664" fill="#222f3e"/><rect x="614.25" y="614.25" width="30.33" height="30.33" fill="#2b303f"/><polygon points="614.25,614.25 644.58,614.25 644.58,644.58" fill="#2f313f"/><rect x="644.58" y="614.25" width="30.33" height="30.33" fill="#673b45"/><polygon points="644.58,614.25 674.9100000000001,614.25 674.9100000000001,644.58" fill="#363240"/><rect x="614.25" y="644.58" width="30.33" height="30.33" fill="#834048"/><polygon points="644.58,644.58 644.58,674.9100000000001 614.25,674.9100000000001" fill="#6b3c46"/><rect x="644.58" y="644.58" width="30.33" height="30.33" fill="#cf4d50"/><polygon points="644.58,644.58 674.9100000000001,644.58 674.9100000000001,674.9100000000001" fill="#d14d50"/><rect x="690.08" y="614.25" width="60.67" height="60.67" fill="#d84e51"/><polygon points="690.08,614.25 750.75,674.92 690.08,674.92" fill="#7f3f48"/><rect x="765.92" y="614.25" width="60.67" height="60.67" fill="#c74b4f"/><polygon points="826.5899999999999,614.25 826.5899999999999,674.92 765.92,674.92" fill="#bf4a4e"/><rect x="841.75" y="614.25" width="60.666666666666664" height="60.666666666666664" fill="#222f3e"/><rect x="841.75" y="614.25" width="30.33" height="30.33" fill="#b0474d"/><polygon points="872.08,614.25 872.08,644.58 841.75,644.58" fill="#333240"/><rect x="872.08" y="614.25" width="30.33" height="30.33" fill="#e75152"/><polygon points="902.4100000000001,614.25 902.4100000000001,644.58 872.08,644.58" fill="#d34d50"/><rect x="841.75" y="644.58" width="30.33" height="30.33" fill="#b6484d"/><polygon points="872.08,644.58 872.08,674.9100000000001 841.75,674.9100000000001" fill="#ca4c4f"/><rect x="872.08" y="644.58" width="30.33" height="30.33" fill="#b3484d"/><polygon points="872.08,644.58 902.4100000000001,644.58 872.08,674.9100000000001" fill="#473542"/><rect x="7.583333333333333" y="690.0833333333334" width="60.666666666666664" height="60.666666666666664" fill="#222f3e"/><rect x="7.58" y="690.08" width="30.33" height="30.33" fill="#4e3743"/><polygon points="7.58,690.08 37.91,690.08 7.58,720.4100000000001" fill="#793e47"/><rect x="37.92" y="690.08" width="30.33" height="30.33" fill="#a8464c"/><polygon points="37.92,690.08 68.25,690.08 68.25,720.4100000000001" fill="#ac474c"/><rect x="7.58" y="720.42" width="30.33" height="30.33" fill="#6c3c46"/><polygon points="7.58,720.42 37.91,750.75 7.58,750.75" fill="#703c46"/><rect x="37.92" y="720.42" width="30.33" height="30.33" fill="#c14a4e"/><polygon points="68.25,720.42 68.25,750.75 37.92,750.75" fill="#98434a"/><rect x="83.42" y="690.08" width="60.67" height="60.67" fill="#94434a"/><polygon points="83.42,690.08 144.09,750.75 83.42,750.75" fill="#e75152"/><rect x="159.25" y="690.0833333333334" width="60.666666666666664" height="60.666666666666664" fill="#222f3e"/><rect x="159.25" y="690.08" width="30.33" height="30.33" fill="#333240"/><polygon points="189.57999999999998,690.08 189.57999999999998,720.4100000000001 159.25,720.4100000000001" fill="#e35052"/><rect x="189.58" y="690.08" width="30.33" height="30.33" fill="#a7464c"/><polygon points="189.58,690.08 219.91000000000003,690.08 189.58,720.4100000000001" fill="#9c444b"/><rect x="159.25" y="720.42" width="30.33" height="30.33" fill="#6a3b45"/><polygon points="159.25,720.42 189.57999999999998,720.42 159.25,750.75" fill="#313240"/><rect x="189.58" y="720.42" width="30.33" height="30.33" fill="#8a4149"/><polygon points="219.91000000000003,720.42 219.91000000000003,750.75 189.58,750.75" fill="#613a44"/><rect x="235.08" y="690.08" width="60.67" height="60.67" fill="#803f48"/><polygon points="235.08,690.08 295.75,690.08 295.75,750.75" fill="#ab474c"/><rect x="310.92" y="690.08" width="60.67" height="60.67" fill="#393340"/><polygon points="371.59000000000003,690.08 371.59000000000003,750.75 310.92,750.75" fill="#824048"/><rect x="386.74999999999994" y="690.0833333333334" width="60.666666666666664" height="60.666666666666664" fill="#222f3e"/><rect x="386.75" y="690.08" width="30.33" height="30.33" fill="#924249"/><polygon points="417.08,690.08 417.08,720.4100000000001 386.75,720.4100000000001" fill="#28303f"/><rect x="417.08" y="690.08" width="30.33" height="30.33" fill="#2d313f"/><polygon points="417.08,690.08 447.40999999999997,690.08 417.08,720.4100000000001" fill="#b0474d"/><rect x="386.75" y="720.42" width="30.33" height="30.33" fill="#c74b4f"/><polygon points="386.75,720.42 417.08,720.42 386.75,750.75" fill="#b0474d"/><rect x="417.08" y="720.42" width="30.33" height="30.33" fill="#c54b4f"/><polygon points="417.08,720.42 447.40999999999997,720.42 447.40999999999997,750.75" fill="#603a44"/><rect x="462.5833333333333" y="690.0833333333334" width="60.666666666666664" height="60.666666666666664" fill="#222f3e"/><rect x="462.58" y="690.08" width="30.33" height="30.33" fill="#653b45"/><polygon points="492.90999999999997,690.08 492.90999999999997,720.4100000000001 462.58,720.4100000000001" fill="#914249"/><rect x="492.92" y="690.08" width="30.33" height="30.33" fill="#9e444b"/><polygon points="523.25,690.08 523.25,720.4100000000001 492.92,720.4100000000001" fill="#222f3e"/><rect x="462.58" y="720.42" width="30.33" height="30.33" fill="#ac474c"/><polygon points="462.58,720.42 492.90999999999997,720.42 492.90999999999997,750.75" fill="#ed5253"/><rect x="492.92" y="720.42" width="30.33" height="30.33" fill="#8e4249"/><polygon points="492.92,720.42 523.25,720.42 523.25,750.75" fill="#a4454b"/><rect x="538.42" y="690.08" width="60.67" height="60.67" fill="#a9464c"/><polygon points="599.0899999999999,690.08 599.0899999999999,750.75 538.42,750.75" fill="#92424a"/><rect x="614.25" y="690.08" width="60.67" height="60.67" fill="#593844"/><polygon points="674.92,690.08 674.92,750.75 614.25,750.75" fill="#533743"/><rect x="690.08" y="690.08" width="60.67" height="60.67" fill="#9f444b"/><polygon points="750.75,690.08 750.75,750.75 690.08,750.75" fill="#663b45"/><rect x="765.92" y="690.08" width="60.67" height="60.67" fill="#d84e51"/><polygon points="765.92,690.08 826.5899999999999,690.08 765.92,750.75" fill="#ab464c"/><rect x="841.75" y="690.0833333333334" width="60.666666666666664" height="60.666666666666664" fill="#222f3e"/><rect x="841.75" y="690.08" width="30.33" height="30.33" fill="#d94e51"/><polygon points="841.75,690.08 872.08,690.08 872.08,720.4100000000001" fill="#894149"/><rect x="872.08" y="690.08" width="30.33" height="30.33" fill="#7c3e47"/><polygon points="872.08,690.08 902.4100000000001,720.4100000000001 872.08,720.4100000000001" fill="#d34d50"/><rect x="841.75" y="720.42" width="30.33" height="30.33" fill="#523743"/><polygon points="841.75,720.42 872.08,720.42 872.08,750.75" fill="#c04a4e"/><rect x="872.08" y="720.42" width="30.33" height="30.33" fill="#854048"/><polygon points="902.4100000000001,720.42 902.4100000000001,750.75 872.08,750.75" fill="#be4a4e"/><rect x="7.58" y="765.92" width="60.67" height="60.67" fill="#9b444a"/><polygon points="7.58,765.92 68.25,826.5899999999999 7.58,826.5899999999999" fill="#583844"/><rect x="83.41666666666666" y="765.9166666666666" width="60.666666666666664" height="60.666666666666664" fill="#222f3e"/><rect x="83.42" y="765.92" width="30.33" height="30.33" fill="#3a3340"/><polygon points="83.42,765.92 113.75,765.92 113.75,796.25" fill="#7d3f47"/><rect x="113.75" y="765.92" width="30.33" height="30.33" fill="#ee5253"/><polygon points="113.75,765.92 144.07999999999998,765.92 113.75,796.25" fill="#573843"/><rect x="83.42" y="796.25" width="30.33" height="30.33" fill="#563843"/><polygon points="83.42,796.25 113.75,826.58 83.42,826.58" fill="#3e3441"/><rect x="113.75" y="796.25" width="30.33" height="30.33" fill="#9a444a"/><polygon points="144.07999999999998,796.25 144.07999999999998,826.58 113.75,826.58" fill="#8f4249"/><rect x="159.25" y="765.9166666666666" width="60.666666666666664" height="60.666666666666664" fill="#222f3e"/><rect x="159.25" y="765.92" width="30.33" height="30.33" fill="#4a3642"/><polygon points="159.25,765.92 189.57999999999998,765.92 159.25,796.25" fill="#834048"/><rect x="189.58" y="765.92" width="30.33" height="30.33" fill="#3f3441"/><polygon points="189.58,765.92 219.91000000000003,796.25 189.58,796.25" fill="#d54e50"/><rect x="159.25" y="796.25" width="30.33" height="30.33" fill="#d64e50"/><polygon points="159.25,796.25 189.57999999999998,796.25 189.57999999999998,826.58" fill="#c54b4f"/><rect x="189.58" y="796.25" width="30.33" height="30.33" fill="#c64b4f"/><polygon points="189.58,796.25 219.91000000000003,826.58 189.58,826.58" fill="#c54b4f"/><rect x="235.08" y="765.92" width="60.67" height="60.67" fill="#29303f"/><polygon points="295.75,765.92 295.75,826.5899999999999 235.08,826.5899999999999" fill="#803f48"/><rect x="310.91666666666663" y="765.9166666666666" width="60.666666666666664" height="60.666666666666664" fill="#222f3e"/><rect x="310.92" y="765.92" width="30.33" height="30.33" fill="#b6484d"/><polygon points="310.92,765.92 341.25,765.92 310.92,796.25" fill="#bc494e"/><rect x="341.25" y="765.92" width="30.33" height="30.33" fill="#483542"/><polygon points="341.25,765.92 371.58,765.92 341.25,796.25" fill="#a2454b"/><rect x="310.92" y="796.25" width="30.33" height="30.33" fill="#683b45"/><polygon points="310.92,796.25 341.25,796.25 341.25,826.58" fill="#343240"/><rect x="341.25" y="796.25" width="30.33" height="30.33" fill="#8f4249"/><polygon points="341.25,796.25 371.58,796.25 341.25,826.58" fill="#b1484d"/><rect x="386.74999999999994" y="765.9166666666666" width="60.666666666666664" height="60.666666666666664" fill="#222f3e"/><rect x="386.75" y="765.92" width="30.33" height="30.33" fill="#25303e"/><polygon points="386.75,765.92 417.08,796.25 386.75,796.25" fill="#543843"/><rect x="417.08" y="765.92" width="30.33" height="30.33" fill="#4a3642"/><polygon points="417.08,765.92 447.40999999999997,765.92 417.08,796.25" fill="#904249"/><rect x="386.75" y="796.25" width="30.33" height="30.33" fill="#ea5153"/><polygon points="386.75,796.25 417.08,796.25 417.08,826.58" fill="#dd4f51"/><rect x="417.08" y="796.25" width="30.33" height="30.33" fill="#8d4149"/><polygon points="417.08,796.25 447.40999999999997,826.58 417.08,826.58" fill="#343240"/><rect x="462.5833333333333" y="765.9166666666666" width="60.666666666666664" height="60.666666666666664" fill="#222f3e"/><rect x="462.58" y="765.92" width="30.33" height="30.33" fill="#4e3743"/><polygon points="462.58,765.92 492.90999999999997,796.25 462.58,796.25" fill="#443541"/><rect x="492.92" y="765.92" width="30.33" height="30.33" fill="#e55052"/><polygon points="523.25,765.92 523.25,796.25 492.92,796.25" fill="#ea5153"/><rect x="462.58" y="796.25" width="30.33" height="30.33" fill="#aa464c"/><polygon points="462.58,796.25 492.90999999999997,796.25 462.58,826.58" fill="#423441"/><rect x="492.92" y="796.25" width="30.33" height="30.33" fill="#693b45"/><polygon points="492.92,796.25 523.25,796.25 492.92,826.58" fill="#9b444a"/><rect x="538.4166666666666" y="765.9166666666666" width="60.666666666666664" height="60.666666666666664" fill="#222f3e"/><rect x="538.42" y="765.92" width="30.33" height="30.33" fill="#5d3944"/><polygon points="568.75,765.92 568.75,796.25 538.42,796.25" fill="#d24d50"/><rect x="568.75" y="765.92" width="30.33" height="30.33" fill="#7a3e47"/><polygon points="568.75,765.92 599.08,796.25 568.75,796.25" fill="#d64e51"/><rect x="538.42" y="796.25" width="30.33" height="30.33" fill="#6e3c46"/><polygon points="568.75,796.25 568.75,826.58 538.42,826.58" fill="#3f3441"/><rect x="568.75" y="796.25" width="30.33" height="30.33" fill="#a6464c"/><polygon points="568.75,796.25 599.08,796.25 568.75,826.58" fill="#8f4249"/><rect x="614.25" y="765.92" width="60.67" height="60.67" fill="#543843"/><polygon points="614.25,765.92 674.92,826.5899999999999 614.25,826.5899999999999" fill="#6b3c46"/><rect x="690.08" y="765.92" width="60.67" height="60.67" fill="#553843"/><polygon points="690.08,765.92 750.75,765.92 750.75,826.5899999999999" fill="#493642"/><rect x="765.92" y="765.92" width="60.67" height="60.67" fill="#3e3441"/><polygon points="765.92,765.92 826.5899999999999,765.92 765.92,826.5899999999999" fill="#ae474c"/><rect x="841.75" y="765.9166666666666" width="60.666666666666664" height="60.666666666666664" fill="#222f3e"/><rect x="841.75" y="765.92" width="30.33" height="30.33" fill="#e25052"/><polygon points="841.75,765.92 872.08,765.92 841.75,796.25" fill="#723d46"/><rect x="872.08" y="765.92" width="30.33" height="30.33" fill="#483542"/><polygon points="902.4100000000001,765.92 902.4100000000001,796.25 872.08,796.25" fill="#d54e50"/><rect x="841.75" y="796.25" width="30.33" height="30.33" fill="#3f3441"/><polygon points="841.75,796.25 872.08,796.25 872.08,826.58" fill="#94434a"/><rect x="872.08" y="796.25" width="30.33" height="30.33" fill="#b2484d"/><polygon points="872.08,796.25 902.4100000000001,796.25 872.08,826.58" fill="#493642"/><rect x="7.58" y="841.75" width="60.67" height="60.67" fill="#4b3642"/><polygon points="68.25,841.75 68.25,902.42 7.58,902.42" fill="#3a3340"/><rect x="83.42" y="841.75" width="60.67" height="60.67" fill="#df4f51"/><polygon points="83.42,841.75 144.09,902.42 83.42,902.42" fill="#523743"/><rect x="159.25" y="841.75" width="60.67" height="60.67" fill="#da4f51"/><polygon points="159.25,841.75 219.92000000000002,841.75 219.92000000000002,902.42" fill="#403441"/><rect x="235.08333333333334" y="841.75" width="60.666666666666664" height="60.666666666666664" fill="#222f3e"/><rect x="235.08" y="841.75" width="30.33" height="30.33" fill="#7a3e47"/><polygon points="235.08,841.75 265.41,841.75 235.08,872.08" fill="#613a44"/><rect x="265.42" y="841.75" width="30.33" height="30.33" fill="#703c46"/><polygon points="265.42,841.75 295.75,872.08 265.42,872.08" fill="#803f48"/><rect x="235.08" y="872.08" width="30.33" height="30.33" fill="#2e313f"/><polygon points="235.08,872.08 265.41,872.08 265.41,902.4100000000001" fill="#c04a4e"/><rect x="265.42" y="872.08" width="30.33" height="30.33" fill="#423541"/><polygon points="265.42,872.08 295.75,872.08 295.75,902.4100000000001" fill="#583844"/><rect x="310.91666666666663" y="841.75" width="60.666666666666664" height="60.666666666666664" fill="#222f3e"/><rect x="310.92" y="841.75" width="30.33" height="30.33" fill="#643a45"/><polygon points="310.92,841.75 341.25,841.75 341.25,872.08" fill="#403441"/><rect x="341.25" y="841.75" width="30.33" height="30.33" fill="#633a45"/><polygon points="341.25,841.75 371.58,841.75 371.58,872.08" fill="#d84e51"/><rect x="310.92" y="872.08" width="30.33" height="30.33" fill="#723d46"/><polygon points="341.25,872.08 341.25,902.4100000000001 310.92,902.4100000000001" fill="#b9494e"/><rect x="341.25" y="872.08" width="30.33" height="30.33" fill="#e75152"/><polygon points="371.58,872.08 371.58,902.4100000000001 341.25,902.4100000000001" fill="#d14d50"/><rect x="386.74999999999994" y="841.75" width="60.666666666666664" height="60.666666666666664" fill="#222f3e"/><rect x="386.75" y="841.75" width="30.33" height="30.33" fill="#2b313f"/><polygon points="386.75,841.75 417.08,841.75 386.75,872.08" fill="#25303e"/><rect x="417.08" y="841.75" width="30.33" height="30.33" fill="#543843"/><polygon points="447.40999999999997,841.75 447.40999999999997,872.08 417.08,872.08" fill="#583844"/><rect x="386.75" y="872.08" width="30.33" height="30.33" fill="#513743"/><polygon points="417.08,872.08 417.08,902.4100000000001 386.75,902.4100000000001" fill="#d14d50"/><rect x="417.08" y="872.08" width="30.33" height="30.33" fill="#543843"/><polygon points="417.08,872.08 447.40999999999997,872.08 417.08,902.4100000000001" fill="#af474c"/><rect x="462.58" y="841.75" width="60.67" height="60.67" fill="#793e47"/><polygon points="462.58,841.75 523.25,902.42 462.58,902.42" fill="#433541"/><rect x="538.42" y="841.75" width="60.67" height="60.67" fill="#9b444a"/><polygon points="538.42,841.75 599.0899999999999,841.75 538.42,902.42" fill="#373340"/><rect x="614.25" y="841.75" width="60.666666666666664" height="60.666666666666664" fill="#222f3e"/><rect x="614.25" y="841.75" width="30.33" height="30.33" fill="#8c4149"/><polygon points="614.25,841.75 644.58,872.08 614.25,872.08" fill="#8e4149"/><rect x="644.58" y="841.75" width="30.33" height="30.33" fill="#6f3c46"/><polygon points="644.58,841.75 674.9100000000001,841.75 644.58,872.08" fill="#3d3441"/><rect x="614.25" y="872.08" width="30.33" height="30.33" fill="#4c3642"/><polygon points="614.25,872.08 644.58,872.08 614.25,902.4100000000001" fill="#cf4d50"/><rect x="644.58" y="872.08" width="30.33" height="30.33" fill="#a0454b"/><polygon points="644.58,872.08 674.9100000000001,902.4100000000001 644.58,902.4100000000001" fill="#a8464c"/><rect x="690.08" y="841.75" width="60.67" height="60.67" fill="#96434a"/><polygon points="690.08,841.75 750.75,902.42 690.08,902.42" fill="#ea5153"/><rect x="765.9166666666666" y="841.75" width="60.666666666666664" height="60.666666666666664" fill="#222f3e"/><rect x="765.92" y="841.75" width="30.33" height="30.33" fill="#583844"/><polygon points="765.92,841.75 796.25,841.75 765.92,872.08" fill="#763d47"/><rect x="796.25" y="841.75" width="30.33" height="30.33" fill="#b4484d"/><polygon points="826.58,841.75 826.58,872.08 796.25,872.08" fill="#ae474c"/><rect x="765.92" y="872.08" width="30.33" height="30.33" fill="#813f48"/><polygon points="765.92,872.08 796.25,872.08 765.92,902.4100000000001" fill="#a3454b"/><rect x="796.25" y="872.08" width="30.33" height="30.33" fill="#d34d50"/><polygon points="796.25,872.08 826.58,872.08 796.25,902.4100000000001" fill="#a6464c"/><rect x="841.75" y="841.75" width="60.666666666666664" height="60.666666666666664" fill="#222f3e"/><rect x="841.75" y="841.75" width="30.33" height="30.33" fill="#333240"/><polygon points="841.75,841.75 872.08,841.75 872.08,872.08" fill="#e45052"/><rect x="872.08" y="841.75" width="30.33" height="30.33" fill="#e05052"/><polygon points="872.08,841.75 902.4100000000001,841.75 902.4100000000001,872.08" fill="#e45052"/><rect x="841.75" y="872.08" width="30.33" height="30.33" fill="#433541"/><polygon points="841.75,872.08 872.08,902.4100000000001 841.75,902.4100000000001" fill="#a4454b"/><rect x="872.08" y="872.08" width="30.33" height="30.33" fill="#2d313f"/><polygon points="872.08,872.08 902.4100000000001,872.08 872.08,902.4100000000001" fill="#513743"/></g></svg>